<svg xmlns="http://www.w3.org/2000/svg" viewBox="0 0 522.99 492.13"><defs><style>.a{fill:#fff;}.a,.c{stroke:#000;stroke-miterlimit:10;}.b{fill:#3c8495;}</style></defs><title>PQlogo_rev</title><ellipse cx="348.97" cy="167.16" rx="174.02" ry="167.16"/><ellipse class="a" cx="348.97" cy="167.16" rx="133.46" ry="137.49"/><path d="M177.69,88.84s-24.4.21-36.3-7.11S95.83,92.37,89,122.6c-3.67,16.17-1.63,65.83,7.35,81.28l18.18,13.65s-4.58-35.4-.92-44.56S125,167.16,125,167.16s6.87,1.83,6.41,11,.59,37.51.59,37.51-.59,11.83,21.85,23.74l40.19,24H202c-18.7-28.47-33.32-54.22-33.32-90.37,0-28.23,9.15-61.21,21-85.14Z"/><path class="b" d="M276.63,272.67,311,250.19c28.56-13.64,28.4-27.84,28.4-27.84s1.33-32.48.75-43,8.16-12.58,8.16-12.58,7.43-1,12.09,9.51,0,47.17,0,47.17l21.72-9.22c11.42-17.69,18.09-75.62,13.41-94.14C386.79,85.5,342.65,60.56,327.49,69s-66,9.27-66,9.26c-22,24.36-35.19,55.73-35.19,90C226.31,209.68,245.74,247,276.63,272.67Z"/><path d="M389.48,309.12,470.1,481.77c12.33,23.36,48.65,2.24,39.67-14.57L436,309.12"/><path d="M101.67,358.81v72.82S72.1,438.9,65.81,461.46l-.09,12.07H0s.69-19.46,8.24-27.71,36.07-10,36.07-10A104.11,104.11,0,0,1,63.2,399.8C77.28,382.63,101.67,358.81,101.67,358.81Z"/><polyline points="195.39 253.23 208.63 272.67 185.47 258.46"/><path class="c" d="M223.61,450.4l-1.49-81.22s.34-11.28,12.71-7.62l2.74,100.06,9.85,13.4h60.91s0-4,0-9.85c.73-13.74-29.06-24.61-29.06-24.61l-6.72-8.68s0-8.59.17-25.9c.17-16.11,8.73-20.15,9.17-32.51.24-6.66,1.83-32.76,0-43.74,0,0-21.52-6.87-38.18-18.89-14.21-10.26-34-29.88-34-29.88s-7.76-.16-26.11-12.88c-21.23-14.73-34.69-21.3-34.69-21.3l-20.64,7.16s-19.6,73.5-18.68,99.15,1.11,78.79,1.11,78.79L104,440.56s-29.8,10.87-29.07,24.61c0,5.84,0,9.85,0,9.85h60.91l9.84-13.4,2.75-100.06c12.36-3.66,12.7,7.62,12.7,7.62L159.6,450.4s-.6,5.25.69,6.87,10.3.92,10.3.92l43.23.38s6.24.82,8.3-1.47S223.61,450.4,223.61,450.4Z"/></svg>